#!OML:ASF G:\JayActor3\Patient Classification 1\Patient 1\Session 5\male.ASF
:FULLY-SPECIFIED
:DEGREES
1289
root 48.7677 16.3057 -6.2444 -263.69 -85.8096 260.91
lowerback 2.91596 -0.382049 4.29079
upperback 2.34776 -0.456763 0.0546478
thorax 0.746929 -0.190739 -2.33908
lowerneck -7.48484 0.336258 2.17095
upperneck 11.383 -0.0970048 1.65621
head 4.64435 0.111575 0.147246
rclavicle 3.3048e-015 -1.39149e-014
rhumerus -32.5632 -4.18547 -87.4327
rradius 28.8161
rwrist 0.841662
rhand -18.4591 -6.70859
rfingers 7.12502
rthumb 7.82726 -36.5437
lclavicle 3.3048e-015 -1.39149e-014
lhumerus -31.9908 8.98382 82.3629
lradius 25.2839
lwrist 16.2046
lhand -18.0597 14.5637
lfingers 7.12502
lthumb 8.2127 44.3841
rfemur -7.35629 6.05894 31.1742
rtibia 30.0663
rfoot -21.0087 -11.8143
rtoes 8.53466
lfemur -23.2148 6.50046 -15.8879
ltibia 45.0735
lfoot -16.1654 9.00125
ltoes -13.533
1290
root 48.835 16.305 -6.24 -263.376 -85.8084 260.58
lowerback 2.84373 -0.374283 4.3233
upperback 2.33791 -0.448835 0.0678173
thorax 0.777737 -0.185812 -2.34435
lowerneck -7.50076 0.337039 2.15557
upperneck 11.4332 -0.0939163 1.63818
head 4.66241 0.11188 0.144444
rclavicle 2.95692e-015 -1.27222e-014
rhumerus -32.6166 -4.20736 -87.3659
rradius 28.7545
rwrist 0.852842
rhand -18.446 -6.69824
rfingers 7.12502
rthumb 7.83992 -36.5329
lclavicle 2.95692e-015 -1.27222e-014
lhumerus -32.0864 9.22928 82.2678
lradius 25.055
lwrist 16.027
lhand -18.1017 14.5256
lfingers 7.12502
lthumb 8.17216 44.3476
rfemur -7.66331 5.97478 31.1021
rtibia 30.1995
rfoot -20.9128 -11.625
rtoes 8.69657
lfemur -23.0029 6.53191 -15.808
ltibia 46.6583
lfoot -16.152 8.92631
ltoes -13.4616
1291
root 48.9015 16.3048 -6.23532 -262.909 -85.8092 260.094
lowerback 2.78321 -0.362184 4.34545
upperback 2.31842 -0.434401 0.0822513
thorax 0.792591 -0.178192 -2.34253
lowerneck -7.49971 0.339088 2.14657
upperneck 11.4724 -0.0886056 1.61592
head 4.67425 0.113053 0.139399
rclavicle -1.13059e-015 -7.95139e-015
rhumerus -32.6839 -4.23415 -87.2925
rradius 28.6874
rwrist 0.866429
rhand -18.4303 -6.69274
rfingers 7.12502
rthumb 7.85505 -36.5268
lclavicle -1.13059e-015 -7.95139e-015
lhumerus -32.1964 9.47044 82.1748
lradius 24.8319
lwrist 15.8765
lhand -18.1252 14.4666
lfingers 7.12502
lthumb 8.14954 44.2894
rfemur -7.95 5.88946 31.023
rtibia 30.3075
rfoot -20.8245 -11.4149
rtoes 8.82538
lfemur -22.7256 6.55248 -15.7189
ltibia 48.1682
lfoot -16.1007 8.76292
ltoes -13.415
1292
root 48.9673 16.3056 -6.23027 -262.245 -85.8129 259.406
lowerback 2.7319 -0.345437 4.36018
upperback 2.2939 -0.413255 0.0947841
thorax 0.797613 -0.16755 -2.33856
lowerneck -7.49125 0.340164 2.14464
upperneck 11.5074 -0.0849555 1.59172
head 4.68355 0.113477 0.132482
rclavicle -1.08089e-015 -7.15625e-015
rhumerus -32.757 -4.26817 -87.2167
rradius 28.6138
rwrist 0.88482
rhand -18.4121 -6.69864
rfingers 7.12502
rthumb 7.87258 -36.5321
lclavicle -1.08089e-015 -7.15625e-015
lhumerus -32.3164 9.69203 82.0872
lradius 24.6197
lwrist 15.7616
lhand -18.1285 14.4136
lfingers 7.12502
lthumb 8.14632 44.2366
rfemur -8.21039 5.80492 30.9352
rtibia 30.3821
rfoot -20.7391 -11.1925
rtoes 8.87214
lfemur -22.375 6.56654 -15.6249
ltibia 49.5834
lfoot -16.0032 8.51617
ltoes -13.4058
1293
root 49.0323 16.3078 -6.22491 -261.402 -85.8148 258.533
lowerback 2.6886 -0.322686 4.37339
upperback 2.26812 -0.383693 0.10466
thorax 0.797467 -0.15283 -2.33656
lowerneck -7.48721 0.341176 2.14611
upperneck 11.5446 -0.0829512 1.57474
head 4.6943 0.113694 0.127138
rclavicle 9.93923e-017 -4.77083e-015
rhumerus -32.8292 -4.32324 -87.1376
rradius 28.5329
rwrist 0.916863
rhand -18.3957 -6.71056
rfingers 7.12502
rthumb 7.88842 -36.5434
lclavicle 9.93923e-017 -4.77083e-015
lhumerus -32.4362 9.8897 82.0049
lradius 24.4154
lwrist 15.6759
lhand -18.1062 14.3604
lfingers 7.12502
lthumb 8.16784 44.1825
rfemur -8.44013 5.72839 30.8453
rtibia 30.4132
rfoot -20.65 -10.9706
rtoes 8.82493
lfemur -21.9492 6.57357 -15.5235
ltibia 50.8887
lfoot -15.8559 8.19715
ltoes -13.4752
1294
root 49.0966 16.3118 -6.21931 -260.337 -85.8189 257.436
lowerback 2.64805 -0.295154 4.37459
upperback 2.24154 -0.347801 0.113859
thorax 0.795429 -0.135135 -2.32862
lowerneck -7.476 0.342566 2.14842
upperneck 11.5772 -0.0810142 1.56366
head 4.70243 0.114149 0.123455
rclavicle -3.97569e-015 7.95139e-016
rhumerus -32.8972 -4.39311 -87.0527
rradius 28.4403
rwrist 0.969303
rhand -18.3849 -6.71171
rfingers 7.12502
rthumb 7.89888 -36.5441
lclavicle -3.97569e-015 7.95139e-016
lhumerus -32.5627 10.0588 81.9357
lradius 24.2317
lwrist 15.6137
lhand -18.064 14.3556
lfingers 7.12502
lthumb 8.20854 44.1761
rfemur -8.63921 5.66444 30.7491
rtibia 30.3961
rfoot -20.5481 -10.7575
rtoes 8.69775
lfemur -21.4449 6.57739 -15.4214
ltibia 52.0704
lfoot -15.6654 7.80966
ltoes -13.5742
1295
root 49.1604 16.3174 -6.2136 -259.164 -85.8163 256.23
lowerback 2.61088 -0.267711 4.37299
upperback 2.21702 -0.312045 0.125062
thorax 0.793629 -0.11755 -2.317
lowerneck -7.47057 0.347655 2.15473
upperneck 11.6026 -0.0744276 1.55269
head 4.70935 0.11708 0.119453
rclavicle -1.63997e-015 6.75868e-015
rhumerus -32.949 -4.47753 -86.9641
rradius 28.3397
rwrist 1.06265
rhand -18.357 -6.74531
rfingers 7.12502
rthumb 7.92577 -36.5767
lclavicle -1.63997e-015 6.75868e-015
lhumerus -32.6821 10.2119 81.874
lradius 24.0572
lwrist 15.5652
lhand -18.0048 14.3616
lfingers 7.12502
lthumb 8.26574 44.1799
rfemur -8.81039 5.61589 30.6591
rtibia 30.3295
rfoot -20.4297 -10.5651
rtoes 8.5161
lfemur -20.8664 6.57179 -15.3091
ltibia 53.1241
lfoot -15.4457 7.35018
ltoes -13.6638
